# xmcd CD database file
#
# Track frame offsets:
#	150
#	14238
#	30783
#	47199
#	61672
#	75129
#	91422
#	109517
#	127872
#	146922
#
# Disc length: 2361 seconds
#
# Revision: 0
# Processed by: cddbd v1.5.2PL0 Copyright (c) Steve Scherf et al.
# Submitted via: ACXtractor (MTCDDB.DLL V2003.12.21)
#
DISCID=7209370a
DTITLE=Cole - The King Is Crying
DYEAR=2007
DGENRE=Blues
TTITLE0=the king is crying
TTITLE1=don't hurt virginia
TTITLE2=emily
TTITLE3=roller coaster
TTITLE4=sailing off
TTITLE5=sold down the river
TTITLE6=all you gamblers
TTITLE7=dreamy summer
TTITLE8=down in the fields
TTITLE9=angel
EXTD=ID3G:   0 YEAR: 2007
EXTT0=
EXTT1=
EXTT2=
EXTT3=
EXTT4=
EXTT5=
EXTT6=
EXTT7=
EXTT8=
EXTT9=
PLAYORDER=
